# xmcd CD database file
#
# Track frame offsets:
#	150
#	12870
#	48645
#	77467
#	100125
#	116355
#	129427
#	151057
#
# Disc length: 2551 seconds
#
# Revision: 0
# Processed by: cddbd v1.5.2PL0 Copyright (c) Steve Scherf et al.
# Submitted via: CDex 1.70beta2
#
DISCID=5109f508
DTITLE=Melanie De Biasio - No Deal remixed
DYEAR=2015
DGENRE=Jazz
TTITLE0=I feel you (Eels remix)
TTITLE1=The flow (Hex remix)
TTITLE2=No deal (Seven Davis Jr remix)
TTITLE3=With love - Sweet darling pain (Gilles Peterson and Simbad remix)
TTITLE4=Sweet darling pain (Chassol remix)
TTITLE5=I'm gonna leave you (Clap! Clap! remix)
TTITLE6=With all my love (Jonwayne remix)
TTITLE7=I'm gonna leave you (The Cinematic Orchestra remix)
EXTD=YEAR: 2015
EXTT0=
EXTT1=
EXTT2=
EXTT3=
EXTT4=
EXTT5=
EXTT6=
EXTT7=
PLAYORDER=
